<svg width="432" height="432" viewBox="0 0 432 432" fill="none" xmlns="http://www.w3.org/2000/svg">
	<path d="M392.695 1.72353C405.63 1.99641 412.097 2.13285 417.066 4.7179C421.44 6.99306 425.007 10.5599 427.282 14.9336C429.867 19.9029 430.004 26.3703 430.276 39.305L431.883 115.443C431.947 118.493 429.492 121 426.442 121V121C423.436 121 421 118.564 421 115.558L421 49.4C421 35.9587 421 29.2381 418.384 24.1042C416.083 19.5883 412.412 15.9168 407.896 13.6158C402.762 11 396.041 11 382.6 11H316.442C313.436 11 311 8.56354 311 5.55801V5.55801C311 2.50755 313.507 0.0528903 316.557 0.117232L392.695 1.72353Z" fill="white" />
	<path d="M39.305 1.72353C26.3703 1.99641 19.9029 2.13285 14.9335 4.7179C10.5599 6.99306 6.99306 10.5599 4.7179 14.9336C2.13285 19.9029 1.99641 26.3703 1.72352 39.305L0.117232 115.443C0.0528903 118.493 2.50755 121 5.55801 121V121C8.56354 121 11 118.564 11 115.558L11 49.4C11 35.9587 11 29.2381 13.6158 24.1042C15.9168 19.5883 19.5883 15.9168 24.1042 13.6158C29.2381 11 35.9587 11 49.4 11H115.558C118.564 11 121 8.56354 121 5.55801V5.55801C121 2.50755 118.493 0.0528903 115.443 0.117232L39.305 1.72353Z" fill="white" />
	<path d="M392.695 430.276C405.63 430.004 412.097 429.867 417.066 427.282C421.44 425.007 425.007 421.44 427.282 417.066C429.867 412.097 430.004 405.63 430.276 392.695L431.883 316.557C431.947 313.507 429.492 311 426.442 311V311C423.436 311 421 313.436 421 316.442L421 382.6C421 396.041 421 402.762 418.384 407.896C416.083 412.412 412.412 416.083 407.896 418.384C402.762 421 396.041 421 382.6 421H316.442C313.436 421 311 423.436 311 426.442V426.442C311 429.492 313.507 431.947 316.557 431.883L392.695 430.276Z" fill="white" />
	<path d="M39.305 430.276C26.3703 430.004 19.9029 429.867 14.9335 427.282C10.5599 425.007 6.99306 421.44 4.7179 417.066C2.13285 412.097 1.99641 405.63 1.72352 392.695L0.117232 316.557C0.0528903 313.507 2.50755 311 5.55801 311V311C8.56354 311 11 313.436 11 316.442L11 382.6C11 396.041 11 402.762 13.6158 407.896C15.9168 412.412 19.5883 416.083 24.1042 418.384C29.2381 421 35.9587 421 49.4 421H115.558C118.564 421 121 423.436 121 426.442V426.442C121 429.492 118.493 431.947 115.443 431.883L39.305 430.276Z" fill="white" />
</svg>
